<svg version="1.1" viewBox="0.0 0.0 65.0 65.0" fill="none" stroke="none" stroke-linecap="square" stroke-miterlimit="10" xmlns:xlink="http://www.w3.org/1999/xlink" xmlns="http://www.w3.org/2000/svg"><clipPath id="p.0"><path d="m0 0l65.0 0l0 65.0l-65.0 0l0 -65.0z" clip-rule="nonzero"/></clipPath><g clip-path="url(#p.0)"><path fill="#000000" fill-opacity="0.0" d="m0 0l65.0 0l0 65.0l-65.0 0z" fill-rule="evenodd"/><defs><linearGradient id="p.1" gradientUnits="userSpaceOnUse" gradientTransform="matrix(8.062760652780982 0.0 0.0 8.062760652780982 0.0 0.0)" spreadMethod="pad" x1="2.799665439371489E-6" y1="-2.9187007947345903E-5" x2="-2.638744710286784E-5" y2="8.062731465720207"><stop offset="0.0" stop-color="#007bff"/><stop offset="1.0" stop-color="#00baff"/></linearGradient></defs><path fill="url(#p.1)" d="m2.2572178E-5 32.503937l0 0c0 -17.951427 14.552508 -32.503937 32.503937 -32.503937l0 0c8.620579 0 16.888084 3.4245121 22.983753 9.520183c6.0956726 6.0956707 9.520184 14.3631735 9.520184 22.983753l0 0c0 17.951427 -14.552509 32.503937 -32.503937 32.503937l0 0c-17.951427 0 -32.503937 -14.552509 -32.503937 -32.503937z" fill-rule="evenodd"/><path fill="#000000" fill-opacity="0.0" d="m27.078566 25.17535l0 0c0 -2.9919052 2.425417 -5.417322 5.417322 -5.417322l0 0c1.4367638 0 2.814682 0.5707512 3.8306274 1.5866966c1.0159454 1.0159454 1.5866966 2.3938618 1.5866966 3.8306255l0 0c0 2.9919052 -2.4254189 5.417322 -5.417324 5.417322l0 0c-2.9919052 0 -5.417322 -2.425417 -5.417322 -5.417322z" fill-rule="evenodd"/><path stroke="#ffffff" stroke-width="2.0" stroke-linejoin="round" stroke-linecap="butt" d="m27.078566 25.17535l0 0c0 -2.9919052 2.425417 -5.417322 5.417322 -5.417322l0 0c1.4367638 0 2.814682 0.5707512 3.8306274 1.5866966c1.0159454 1.0159454 1.5866966 2.3938618 1.5866966 3.8306255l0 0c0 2.9919052 -2.4254189 5.417322 -5.417324 5.417322l0 0c-2.9919052 0 -5.417322 -2.425417 -5.417322 -5.417322z" fill-rule="evenodd"/><defs><linearGradient id="p.2" gradientUnits="userSpaceOnUse" gradientTransform="matrix(4.6550365917205445 0.0 0.0 4.6550365917205445 0.0 0.0)" spreadMethod="pad" x1="4.651661841814784" y1="5.473015613309683" x2="4.651644772595318" y2="10.128052204998934"><stop offset="0.0" stop-color="#007bff"/><stop offset="1.0" stop-color="#00baff"/></linearGradient></defs><path fill="url(#p.2)" d="m21.653654 29.088785l0 0c0 -1.9946423 1.6169777 -3.61162 3.6116219 -3.61162l14.446051 0l0 0c0.95785904 0 1.8764915 0.38050842 2.5537987 1.0578194c0.67731094 0.67730904 1.0578194 1.5959396 1.0578194 2.5538006l0 14.446051c0 1.9946442 -1.6169777 3.6116219 -3.611618 3.6116219l-14.446051 0c-1.9946442 0 -3.6116219 -1.6169777 -3.6116219 -3.6116219z" fill-rule="evenodd"/><path stroke="#ffffff" stroke-width="3.0" stroke-linejoin="round" stroke-linecap="butt" d="m21.653654 29.088785l0 0c0 -1.9946423 1.6169777 -3.61162 3.6116219 -3.61162l14.446051 0l0 0c0.95785904 0 1.8764915 0.38050842 2.5537987 1.0578194c0.67731094 0.67730904 1.0578194 1.5959396 1.0578194 2.5538006l0 14.446051c0 1.9946442 -1.6169777 3.6116219 -3.611618 3.6116219l-14.446051 0c-1.9946442 0 -3.6116219 -1.6169777 -3.6116219 -3.6116219z" fill-rule="evenodd"/></g></svg>